HIERARCHY
ROOT Hips
{
	OFFSET 38.031799 -2.233556 98.854698
	CHANNELS 6 Xposition Yposition Zposition Xrotation Yrotation Zrotation
	JOINT spine
	{
		OFFSET 0.000000 -0.477352 8.301041
		CHANNELS 3 Xrotation Yrotation Zrotation
		JOINT spine1
		{
			OFFSET 0.000000 -0.000002 10.456497
			CHANNELS 3 Xrotation Yrotation Zrotation
			JOINT spine2
			{
				OFFSET 0.000000 -0.000002 10.019203
				CHANNELS 3 Xrotation Yrotation Zrotation
				JOINT Neck
				{
					OFFSET 0.000000 -1.226414 25.723495
					CHANNELS 3 Xrotation Yrotation Zrotation
					JOINT Head
					{
						OFFSET 0.000000 -0.000001 7.771744
						CHANNELS 3 Xrotation Yrotation Zrotation
						End Site
						{
							OFFSET 0.000000 6.203937 18.811996
						}
					}
				}
				JOINT RightShoulder
				{
					OFFSET -4.218800 0.587437 10.820007
					CHANNELS 3 Xrotation Yrotation Zrotation
					JOINT RightArm
					{
						OFFSET 0.000000 -0.000002 14.191406
						CHANNELS 3 Xrotation Yrotation Zrotation
						JOINT RightArmRoll
						{
							OFFSET 0.000000 -0.000001 7.164078
							CHANNELS 3 Xrotation Yrotation Zrotation
							JOINT RightForeArm
							{
								OFFSET 0.000000 -0.000003 20.866501
								CHANNELS 3 Xrotation Yrotation Zrotation
								JOINT RightForeArmRoll
								{
									OFFSET 0.000000 -0.000001 8.039215
									CHANNELS 3 Xrotation Yrotation Zrotation
									JOINT RightHand
									{
										OFFSET 0.000000 -0.000003 16.132996
										CHANNELS 3 Xrotation Yrotation Zrotation
										End Site
										{
											OFFSET 0.000000 0.000000 0.100006
										}
									}
								}
							}
						}
					}
				}
				JOINT LeftShoulder
				{
					OFFSET 4.218800 0.587437 10.820007
					CHANNELS 3 Xrotation Yrotation Zrotation
					JOINT LeftArm
					{
						OFFSET 0.000000 -0.000002 14.191406
						CHANNELS 3 Xrotation Yrotation Zrotation
						JOINT LeftArmRoll
						{
							OFFSET 0.000000 -0.000001 7.164078
							CHANNELS 3 Xrotation Yrotation Zrotation
							JOINT LeftForeArm
							{
								OFFSET 0.000000 -0.000003 20.866501
								CHANNELS 3 Xrotation Yrotation Zrotation
								JOINT LeftForeArmRoll
								{
									OFFSET 0.000000 -0.000001 8.039215
									CHANNELS 3 Xrotation Yrotation Zrotation
									JOINT LeftHand
									{
										OFFSET 0.000000 -0.000003 16.132996
										CHANNELS 3 Xrotation Yrotation Zrotation
										End Site
										{
											OFFSET 0.000000 0.000000 0.100006
										}
									}
								}
							}
						}
					}
				}
			}
		}
	}
	JOINT RightUpLeg
	{
		OFFSET -7.357731 1.131820 -1.349213
		CHANNELS 3 Xrotation Yrotation Zrotation
		JOINT RightUpLegRoll
		{
			OFFSET 0.000000 -0.000003 18.916801
			CHANNELS 3 Xrotation Yrotation Zrotation
			JOINT RightLeg
			{
				OFFSET 0.000000 0.000004 -23.425598
				CHANNELS 3 Xrotation Yrotation Zrotation
				JOINT RightLegRoll
				{
					OFFSET 0.000000 -0.000004 23.502304
					CHANNELS 3 Xrotation Yrotation Zrotation
					JOINT RightFoot
					{
						OFFSET 0.000000 -0.000003 19.561707
						CHANNELS 3 Xrotation Yrotation Zrotation
						JOINT RightToeBase
						{
							OFFSET 0.000000 -0.000003 16.352600
							CHANNELS 3 Xrotation Yrotation Zrotation
							End Site
							{
								OFFSET 0.006931 0.912835 7.919434
							}
						}
					}
				}
			}
		}
	}
	JOINT LeftUpLeg
	{
		OFFSET 7.357731 1.131820 -1.349213
		CHANNELS 3 Xrotation Yrotation Zrotation
		JOINT LeftUpLegRoll
		{
			OFFSET 0.000000 -0.000003 18.916901
			CHANNELS 3 Xrotation Yrotation Zrotation
			JOINT LeftLeg
			{
				OFFSET 0.000000 -0.000004 23.425499
				CHANNELS 3 Xrotation Yrotation Zrotation
				JOINT LeftLegRoll
				{
					OFFSET 0.000000 -0.000004 23.719498
					CHANNELS 3 Xrotation Yrotation Zrotation
					JOINT LeftFoot
					{
						OFFSET 0.000000 -0.000003 19.344406
						CHANNELS 3 Xrotation Yrotation Zrotation
						JOINT LeftToeBase
						{
							OFFSET 0.000000 -0.000003 16.352600
							CHANNELS 3 Xrotation Yrotation Zrotation
							End Site
							{
								OFFSET -0.031063 0.912836 7.919434
							}
						}
					}
				}
			}
		}
	}
}
MOTION
Frames: 12
Frame Time: 0.041667
37.835701 -2.458076 98.857506 -4.336828 -0.857601 0.294756 -1.232497 0.003992 0.103861 1.532860 -0.000873 0.239459 3.177919 0.001884 0.239527 25.778720 0.078778 -0.972840 -9.778017 2.038565 -0.994762 -3.837990 -76.427583 -6.146658 -79.238978 -114.399515 -59.632012 0.000002 0.000001 0.000001 0.144183 -14.307756 -0.003561 -0.000002 -0.000014 -3.016520 -5.000238 -7.998762 0.000160 13.357579 67.556520 -13.814817 -60.672871 109.613560 44.154724 -0.000002 0.000001 0.000001 1.466896 9.845097 0.372218 0.000005 -0.000004 3.000001 -5.000231 7.998829 -0.000151 1.664358 -175.449911 1.597140 -179.999991 0.000005 -1.107005 174.703166 -3.913274 -0.620517 -0.000003 -0.000000 0.062616 68.810994 6.891830 2.152690 25.456955 -7.355616 0.000000 2.323037 175.942340 0.669397 -0.000005 -0.000004 -1.203750 -8.962806 3.275846 0.944328 -0.000006 0.000003 -0.113405 68.432075 -6.935242 -2.059614 25.456955 7.355613 -0.000000 
37.831001 -2.456518 98.838989 -4.337135 -0.857511 0.295603 -1.233277 0.003981 0.103829 1.530669 -0.000369 0.237874 3.175729 0.002383 0.237910 25.768335 0.085867 -0.971590 -9.761260 2.026072 -0.993174 -3.828584 -76.444058 -6.137989 -79.254066 -114.368082 -59.721699 0.000000 -0.000000 -0.000001 0.165731 -14.377044 0.011701 -0.000001 -0.000014 -3.015840 -5.000238 -7.998762 0.000160 13.346284 67.567660 -13.800267 -60.655140 109.578214 44.140695 0.000001 -0.000000 0.000001 1.492286 9.857501 0.370273 0.000004 -0.000004 3.000000 -5.000230 7.998831 -0.000151 1.669238 -175.446933 1.606044 -179.999991 0.000005 -1.107005 174.709873 -3.924266 -0.620075 -0.000003 -0.000000 0.062616 68.807524 6.891865 2.152612 25.456959 -7.355617 0.000000 2.326883 175.942354 0.669675 -0.000005 -0.000005 -1.203750 -8.961085 3.274013 0.944517 -0.000005 0.000003 -0.113405 68.429234 -6.935221 -2.059587 25.456957 7.355613 -0.000001 
37.828098 -2.473539 98.847809 -4.337489 -0.857378 0.296538 -1.234056 0.003966 0.103779 1.528460 0.000137 0.236247 3.173519 0.002885 0.236250 25.758028 0.092717 -0.970330 -9.744464 2.013598 -0.991576 -3.819589 -76.460628 -6.129763 -79.268006 -114.336451 -59.809842 0.000001 0.000001 0.000000 0.182765 -14.446229 0.027129 0.000001 -0.000012 -3.015140 -5.000240 -7.998759 0.000160 13.334213 67.579073 -13.784819 -60.638153 109.543291 44.127953 -0.000001 0.000001 -0.000000 1.515211 9.870376 0.368447 0.000001 -0.000004 2.999999 -5.000229 7.998829 -0.000151 1.674232 -175.443941 1.615129 -179.999991 0.000005 -1.107005 174.716621 -3.935259 -0.620622 -0.000003 -0.000000 0.062616 68.804034 6.891829 2.152723 25.456957 -7.355616 0.000001 2.330955 175.942354 0.669969 -0.000005 -0.000004 -1.203750 -8.959115 3.272085 0.944693 -0.000005 0.000003 -0.113405 68.426167 -6.935224 -2.059580 25.456953 7.355613 -0.000001 
37.830299 -2.473115 98.848808 -4.337855 -0.857215 0.297535 -1.234818 0.003947 0.103719 1.526230 0.000645 0.234592 3.171289 0.003389 0.234559 25.747737 0.099401 -0.969065 -9.727632 2.001142 -0.989989 -3.810860 -76.477191 -6.121819 -79.280956 -114.304595 -59.896729 0.000005 0.000000 -0.000001 0.196636 -14.515221 0.042669 -0.000000 -0.000014 -3.014419 -5.000241 -7.998759 0.000159 13.321633 67.590637 -13.768756 -60.621228 109.508819 44.115516 -0.000002 0.000000 0.000000 1.536420 9.883575 0.366700 0.000004 -0.000004 3.000001 -5.000231 7.998830 -0.000151 1.679305 -175.439952 1.624368 -179.999991 0.000005 -1.107005 174.723397 -3.947259 -0.620262 -0.000003 -0.000000 0.062616 68.800557 6.891826 2.152639 25.456959 -7.355615 0.000000 2.335188 175.941356 0.670232 -0.000005 -0.000005 -1.203750 -8.956964 3.270099 0.944859 -0.000006 0.000003 -0.113405 68.422916 -6.935244 -2.059591 25.456957 7.355613 -0.000001 
37.834702 -2.453199 98.840591 -4.338245 -0.857035 0.298568 -1.235570 0.003927 0.103653 1.524000 0.001153 0.232919 3.169059 0.003893 0.232852 25.737544 0.105990 -0.967796 -9.710785 1.988685 -0.988395 -3.802306 -76.493857 -6.114077 -79.293428 -114.272589 -59.982988 0.000002 0.000000 -0.000001 0.208701 -14.584209 0.058281 -0.000001 -0.000013 -3.013691 -5.000241 -7.998761 0.000161 13.308729 67.602310 -13.752324 -60.604671 109.474374 44.103635 -0.000000 -0.000000 -0.000000 1.556641 9.896959 0.364999 0.000002 -0.000004 3.000000 -5.000230 7.998831 -0.000151 1.684417 -175.436961 1.633653 -179.999991 0.000005 -1.107005 174.730173 -3.958253 -0.620803 -0.000003 -0.000000 0.062616 68.796978 6.891856 2.152567 25.456957 -7.355617 0.000001 2.339508 175.941370 0.670543 -0.000005 -0.000004 -1.203750 -8.954723 3.268075 0.945020 -0.000005 0.000003 -0.113405 68.419747 -6.935203 -2.059681 25.456952 7.355613 -0.000001 
37.831600 -2.461147 98.834503 -4.338645 -0.856851 0.299609 -1.236331 0.003905 0.103584 1.521759 0.001661 0.231243 3.166819 0.004397 0.231141 25.727352 0.112554 -0.966523 -9.693932 1.976247 -0.986790 -3.793765 -76.510515 -6.106349 -79.305941 -114.240576 -60.069287 0.000000 0.000000 0.000000 0.220319 -14.653198 0.073930 -0.000001 -0.000013 -3.012960 -5.000242 -7.998759 0.000160 13.295742 67.613996 -13.735796 -60.588129 109.440155 44.091822 0.000001 0.000001 0.000000 1.576615 9.910401 0.363299 0.000005 -0.000004 3.000001 -5.000229 7.998831 -0.000151 1.689539 -175.433983 1.642958 -179.999991 0.000005 -1.107005 174.736975 -3.970240 -0.620420 -0.000003 -0.000000 0.062616 68.793488 6.891818 2.152578 25.456957 -7.355614 0.000000 2.343858 175.941384 0.670855 -0.000005 -0.000005 -1.203750 -8.952460 3.266039 0.945182 -0.000005 0.000003 -0.113405 68.416482 -6.935226 -2.059590 25.456957 7.355613 -0.000001 
37.819199 -2.480547 98.837402 -4.339025 -0.856675 0.300634 -1.237089 0.003885 0.103520 1.519519 0.002170 0.229575 3.164588 0.004901 0.229438 25.717057 0.119165 -0.965248 -9.677095 1.963796 -0.985179 -3.785126 -76.527174 -6.098510 -79.318878 -114.208433 -60.155949 0.000003 -0.000000 0.000000 0.232858 -14.722186 0.089596 -0.000002 -0.000014 -3.012241 -5.000240 -7.998761 0.000160 13.282893 67.625669 -13.719442 -60.571456 109.405724 44.079807 0.000000 0.000000 -0.000001 1.597080 9.923740 0.361564 0.000003 -0.000004 3.000000 -5.000231 7.998831 -0.000151 1.694657 -175.429994 1.652264 -179.999991 0.000005 -1.107005 174.743751 -3.982240 -0.620051 -0.000003 -0.000000 0.062616 68.789909 6.891847 2.152606 25.456959 -7.355615 0.000001 2.348160 175.941397 0.671165 -0.000005 -0.000004 -1.203750 -8.950239 3.264016 0.945342 -0.000005 0.000003 -0.113405 68.413231 -6.935246 -2.059597 25.456952 7.355613 -0.000000 
37.820499 -2.477596 98.842010 -4.339396 -0.856521 0.301613 -1.237850 0.003867 0.103463 1.517300 0.002677 0.227928 3.162369 0.005404 0.227756 25.706863 0.125894 -0.963974 -9.660276 1.951334 -0.983562 -3.776232 -76.543744 -6.090394 -79.332777 -114.176311 -60.243833 0.000001 -0.000001 -0.000003 0.247667 -14.791268 0.105251 0.000001 -0.000014 -3.011531 -5.000238 -7.998758 0.000160 13.270354 67.637109 -13.703434 -60.554456 109.371109 44.067172 -0.000001 -0.000001 -0.000000 1.618793 9.936852 0.359752 0.000002 -0.000004 3.000001 -5.000230 7.998829 -0.000151 1.699698 -175.427002 1.661445 -179.999991 0.000005 -1.107005 174.750527 -3.993236 -0.620584 -0.000003 -0.000000 0.062616 68.786425 6.891844 2.152522 25.456959 -7.355616 0.000001 2.352352 175.940414 0.671425 -0.000004 -0.000004 -1.203750 -8.948145 3.262048 0.945513 -0.000005 0.000003 -0.113405 68.410061 -6.935240 -2.059595 25.456953 7.355613 -0.000001 
37.814999 -2.477569 98.839096 -4.339735 -0.856401 0.302522 -1.238629 0.003854 0.103418 1.515089 0.003183 0.226314 3.160159 0.005906 0.226110 25.696469 0.132814 -0.962704 -9.643492 1.938861 -0.981918 -3.766991 -76.560314 -6.081907 -79.348644 -114.144346 -60.333848 0.000000 0.000001 0.000000 0.266122 -14.860347 0.120886 -0.000001 -0.000013 -3.010832 -5.000238 -7.998759 0.000160 13.258446 67.648393 -13.688171 -60.536622 109.336070 44.053344 -0.000000 -0.000000 -0.000000 1.642470 9.949581 0.357825 0.000002 -0.000004 3.000000 -5.000229 7.998829 -0.000151 1.704663 -175.424010 1.670479 -179.999991 0.000005 -1.107005 174.757275 -4.004229 -0.620120 -0.000003 -0.000000 0.062616 68.782949 6.891841 2.152541 25.456959 -7.355614 0.000000 2.356353 175.940414 0.671714 -0.000005 -0.000005 -1.203750 -8.946247 3.260148 0.945693 -0.000005 0.000003 -0.113405 68.407111 -6.935212 -2.059674 25.456959 7.355613 -0.000001 
37.812599 -2.481734 98.848808 -4.340028 -0.856329 0.303333 -1.239421 0.003845 0.103392 1.512909 0.003688 0.224746 3.157979 0.006406 0.224510 25.686079 0.139994 -0.961436 -9.626754 1.926366 -0.980269 -3.757217 -76.576686 -6.072837 -79.366142 -114.112346 -60.426028 0.000001 0.000000 -0.000000 0.289585 -14.929620 0.136495 0.000000 -0.000014 -3.010160 -5.000240 -7.998759 0.000160 13.247339 67.659410 -13.673855 -60.518051 109.300471 44.038239 0.000000 0.000000 0.000000 1.668867 9.961797 0.355740 0.000003 -0.000004 3.000001 -5.000228 7.998829 -0.000151 1.709493 -175.421033 1.679304 -179.999991 0.000005 -1.107005 174.763955 -4.015236 -0.620656 -0.000003 -0.000000 0.062616 68.779561 6.891809 2.152544 25.456959 -7.355614 -0.000000 2.360101 175.940427 0.671986 -0.000005 -0.000004 -1.203750 -8.944619 3.258345 0.945888 -0.000005 0.000003 -0.113405 68.404263 -6.935225 -2.059556 25.456957 7.355613 -0.000001 
37.817101 -2.489316 98.849403 -4.340257 -0.856316 0.304021 -1.240226 0.003844 0.103388 1.510759 0.004189 0.223235 3.155829 0.006904 0.222969 25.675591 0.147507 -0.960174 -9.610080 1.913851 -0.978584 -3.746848 -76.593072 -6.063127 -79.386592 -114.080613 -60.521569 0.000004 0.000001 0.000001 0.319421 -14.998978 0.152076 -0.000000 -0.000013 -3.009530 -5.000240 -7.998758 0.000160 13.237243 67.670031 -13.660730 -60.498763 109.264305 44.021768 -0.000001 -0.000000 -0.000000 1.698716 9.973362 0.353461 0.000004 -0.000004 3.000000 -5.000229 7.998830 -0.000151 1.714173 -175.417030 1.687917 -179.999991 0.000005 -1.107005 174.770594 -4.026229 -0.620194 -0.000003 -0.000000 0.062616 68.776091 6.891842 2.152569 25.456959 -7.355616 0.000000 2.363534 175.940455 0.672236 -0.000005 -0.000004 -1.203750 -8.943351 3.256677 0.946103 -0.000006 0.000003 -0.113405 68.401633 -6.935217 -2.059620 25.456953 7.355613 -0.000001 
37.815399 -2.491886 98.845711 -4.340415 -0.856375 0.304558 -1.241070 0.003851 0.103411 1.508640 0.004688 0.221795 3.153719 0.007398 0.221503 25.664998 0.155423 -0.958919 -9.593483 1.901294 -0.976885 -3.735669 -76.609171 -6.052534 -79.409951 -114.049058 -60.620647 0.000002 0.000000 0.000000 0.356998 -15.068420 0.167640 -0.000003 -0.000012 -3.008939 -5.000240 -7.998761 0.000160 13.228350 67.680153 -13.649027 -60.478327 109.227183 44.003371 0.000001 -0.000000 -0.000000 1.732770 9.984123 0.350943 0.000005 -0.000004 3.000001 -5.000230 7.998830 -0.000151 1.718661 -175.414052 1.696175 -179.999991 0.000005 -1.107005 174.777151 -4.036230 -0.620642 -0.000003 -0.000000 0.062616 68.772820 6.891853 2.152473 25.456957 -7.355615 0.000000 2.366578 175.940455 0.672459 -0.000005 -0.000004 -1.203750 -8.942495 3.255163 0.946339 -0.000005 0.000003 -0.113405 68.399304 -6.935196 -2.059663 25.456955 7.355613 -0.000001 
